<mxfile host="app.diagrams.net" modified="2024-06-17T23:20:54.994Z" agent="Mozilla/5.0 (Windows NT 10.0; Win64; x64) AppleWebKit/537.36 (KHTML, like Gecko) Chrome/126.0.0.0 Safari/537.36 Edg/126.0.0.0" version="24.5.5" etag="yPUhcpSP0G6Avx8jKze0" type="github">
  <diagram name="PÃ¡gina-1" id="WBaLmYNLntUNm74ANVJh">
    <mxGraphModel>
      <root>
        <mxCell id="0" />
        <mxCell id="1" parent="0" />
      </root>
    </mxGraphModel>
  </diagram>
</mxfile>
